<svg width="20" height="21" viewBox="0 0 20 21" fill="none" xmlns="http://www.w3.org/2000/svg">
<g clip-path="url(#clip0_47_480)">
<path d="M6.72 20.91C6.52 20.91 6.35 20.84 6.21 20.7C6.07 20.56 6 20.39 6 20.19V17.03H3.62C2.96667 17.03 2.36333 16.8667 1.81 16.54C1.25667 16.2134 0.816667 15.7734 0.49 15.22C0.163333 14.6667 0 14.0634 0 13.41V5.41003C0 4.7567 0.163333 4.15337 0.49 3.60003C0.816667 3.0467 1.25667 2.6067 1.81 2.28004C2.36333 1.95337 2.96667 1.79004 3.62 1.79004H14.62C15.2733 1.79004 15.8767 1.95337 16.43 2.28004C16.9833 2.6067 17.4233 3.0467 17.75 3.60003C18.0767 4.15337 18.24 4.7567 18.24 5.41003V13.41C18.24 14.0634 18.0767 14.6667 17.75 15.22C17.4233 15.7734 16.9833 16.2134 16.43 16.54C15.8767 16.8667 15.2733 17.03 14.62 17.03H11.36L7.2 20.73C7.06667 20.85 6.90667 20.91 6.72 20.91ZM3.62 3.03004C3.19333 3.03004 2.79667 3.1367 2.43 3.35003C2.06333 3.56337 1.77333 3.85337 1.56 4.22003C1.34667 4.5867 1.24 4.98337 1.24 5.41003V13.41C1.24 13.8367 1.34667 14.2334 1.56 14.6C1.77333 14.9667 2.06333 15.2567 2.43 15.47C2.79667 15.6834 3.19333 15.79 3.62 15.79H7.24V19.01L10.88 15.79H14.62C15.0467 15.79 15.4433 15.6834 15.81 15.47C16.1767 15.2567 16.4667 14.9667 16.68 14.6C16.8933 14.2334 17 13.8367 17 13.41V5.41003C17 4.98337 16.8933 4.5867 16.68 4.22003C16.4667 3.85337 16.1767 3.56337 15.81 3.35003C15.4433 3.1367 15.0467 3.03004 14.62 3.03004H3.62Z" fill="#8C8C8C"/>
</g>
<defs>
<clipPath id="clip0_47_480">
<rect width="20" height="20" fill="white" transform="matrix(1 0 0 -1 0 20.91)"/>
</clipPath>
</defs>
</svg>
