<svg width="20" height="20" viewBox="0 0 20 20" fill="none" xmlns="http://www.w3.org/2000/svg">
<rect x="0.5" y="0.5" width="19" height="19" rx="9.5" fill="#F4F4F4" fill-opacity="0.9"/>
<rect x="0.5" y="0.5" width="19" height="19" rx="9.5" stroke="#C62626"/>
<path fill-rule="evenodd" clip-rule="evenodd" d="M6.42857 5C5.63959 5 5 5.63959 5 6.42857V13.5714C5 14.3604 5.63959 15 6.42857 15C7.21755 15 7.85714 14.3604 7.85714 13.5714V6.42857C7.85714 5.63959 7.21755 5 6.42857 5ZM13.5714 5C12.7825 5 12.1429 5.63959 12.1429 6.42857V13.5714C12.1429 14.3604 12.7825 15 13.5714 15C14.3604 15 15 14.3604 15 13.5714V6.42857C15 5.63959 14.3604 5 13.5714 5Z" fill="#D22F26"/>
</svg>
