<svg width="15" height="19" viewBox="0 0 15 19" fill="none" xmlns="http://www.w3.org/2000/svg">
<path d="M1.12 18.84C0.813333 18.84 0.55 18.7333 0.33 18.52C0.11 18.3067 0 18.04 0 17.72V1.11999C0 0.813318 0.11 0.549986 0.33 0.329987C0.55 0.109985 0.813333 -1.33514e-05 1.12 -1.33514e-05H13.12C13.4267 -1.33514e-05 13.69 0.109985 13.91 0.329987C14.13 0.549986 14.24 0.813318 14.24 1.11999V17.72C14.24 17.9333 14.19 18.1267 14.09 18.3C13.99 18.4733 13.85 18.61 13.67 18.71C13.49 18.81 13.3 18.8567 13.1 18.85C12.9 18.8433 12.7133 18.7867 12.54 18.68L7.12 15.36L1.72 18.68C1.53333 18.7867 1.33333 18.8467 1.12 18.86V18.84ZM1.24 1.23999V17.5L7.12 13.88L13 17.5V1.23999H1.24Z" fill="#8C8C8C"/>
</svg>
