<svg width="16" height="16" viewBox="0 0 16 16" fill="none" xmlns="http://www.w3.org/2000/svg">
<g clip-path="url(#clip0_432_287)">
<path fill-rule="evenodd" clip-rule="evenodd" d="M7.33331 12C9.91064 12 12 9.91064 12 7.33331C12 4.75598 9.91064 2.66665 7.33331 2.66665C4.75598 2.66665 2.66665 4.75598 2.66665 7.33331C2.66665 9.91064 4.75598 12 7.33331 12ZM7.33331 13.3333C8.7425 13.3333 10.0382 12.8475 11.0621 12.0342C11.4427 11.732 11.7856 11.3845 12.0829 11C12.8669 9.98602 13.3333 8.71414 13.3333 7.33331C13.3333 4.0196 10.647 1.33331 7.33331 1.33331C4.0196 1.33331 1.33331 4.0196 1.33331 7.33331C1.33331 10.647 4.0196 13.3333 7.33331 13.3333Z" fill="#737373"/>
<path d="M14.5506 13.7826C14.615 13.7183 14.6158 13.6142 14.5525 13.5488L12.0829 11C11.7856 11.3845 11.4427 11.732 11.0621 12.0342L13.5488 14.5475C13.6138 14.6132 13.7198 14.6135 13.7851 14.5482L14.5506 13.7826Z" fill="#737373"/>
</g>
<defs>
<clipPath id="clip0_432_287">
<rect width="16" height="16" fill="white"/>
</clipPath>
</defs>
</svg>
